<svg xmlns="http://www.w3.org/2000/svg" xmlns:xlink="http://www.w3.org/1999/xlink" width="500" zoomAndPan="magnify" viewBox="0 0 375 374.999991" height="500" preserveAspectRatio="xMidYMid meet" version="1.0"><defs><clipPath id="b656c54c49"><path d="M 0 23.164062 L 375 23.164062 L 375 351.664062 L 0 351.664062 Z M 0 23.164062 " clip-rule="nonzero"/></clipPath><clipPath id="38a710904a"><path d="M 144.816406 112.5 L 230.316406 112.5 L 230.316406 262.5 L 144.816406 262.5 Z M 144.816406 112.5 " clip-rule="nonzero"/></clipPath></defs><g clip-path="url(#b656c54c49)"><path fill="#000000" d="M 280.683594 23.164062 L 94.316406 23.164062 L 0.00390625 187.414062 L 94.316406 351.664062 L 280.683594 351.664062 L 374.996094 187.414062 L 280.683594 23.164062 M 275.550781 342.765625 L 99.449219 342.765625 L 10.265625 187.414062 L 99.449219 32.0625 L 275.550781 32.0625 L 364.734375 187.414062 L 275.550781 342.765625 " fill-opacity="1" fill-rule="nonzero"/></g><g clip-path="url(#38a710904a)"><path fill="#4576d4" d="M 230.300781 234.539062 L 230.300781 123.121094 C 230.300781 121.179688 230.226562 119.328125 229.296875 117.523438 C 227.496094 114.019531 223.972656 112.691406 220.253906 112.691406 L 154.761719 112.691406 C 150.652344 112.691406 146.910156 114.535156 145.40625 118.585938 C 144.828125 120.132812 144.859375 121.699219 144.859375 123.304688 L 144.859375 234.816406 C 144.859375 235.996094 144.832031 237.179688 144.859375 238.363281 C 144.96875 242.953125 148.046875 246.59375 152.433594 247.359375 L 152.433594 251.867188 C 152.433594 253.09375 152.382812 254.335938 152.433594 255.566406 C 152.574219 259.007812 155.097656 261.949219 158.546875 262.277344 C 158.746094 262.308594 158.960938 262.324219 159.1875 262.308594 C 159.40625 262.308594 159.605469 262.289062 159.796875 262.25 C 163.269531 261.789062 165.785156 259.171875 165.945312 255.558594 C 166 254.28125 165.945312 252.988281 165.945312 251.710938 L 165.945312 247.507812 C 166.515625 247.503906 167.085938 247.5 167.660156 247.5 L 210.859375 247.5 L 210.859375 251.867188 C 210.859375 253.09375 210.808594 254.335938 210.859375 255.566406 C 211 259.007812 213.523438 261.949219 216.972656 262.277344 C 217.171875 262.308594 217.386719 262.324219 217.613281 262.308594 C 217.832031 262.308594 218.03125 262.289062 218.222656 262.25 C 221.695312 261.789062 224.210938 259.171875 224.371094 255.558594 C 224.425781 254.28125 224.371094 252.988281 224.371094 251.710938 L 224.371094 246.910156 C 227.886719 245.609375 230.253906 242.320312 230.300781 238.289062 C 230.316406 237.039062 230.300781 235.789062 230.300781 234.539062 Z M 224.964844 202.972656 L 224.964844 237.796875 C 224.964844 238.796875 224.757812 239.75 224.300781 240.515625 C 223.777344 241.386719 222.929688 242 221.703125 242.144531 C 221.585938 242.15625 221.472656 242.167969 221.351562 242.171875 L 158.914062 242.171875 C 158.550781 242.171875 158.167969 242.183594 157.769531 242.195312 C 157.402344 242.207031 157.019531 242.222656 156.636719 242.230469 C 156.128906 242.242188 155.609375 242.242188 155.101562 242.222656 C 154.144531 242.183594 153.21875 242.058594 152.433594 241.75 C 151.132812 241.234375 150.214844 240.207031 150.195312 238.207031 C 150.089844 227.226562 150.195312 216.242188 150.195312 205.261719 L 150.195312 171.050781 L 224.964844 171.050781 Z M 219.035156 249.722656 L 219.035156 254.558594 C 219.035156 255.632812 219.0625 256.898438 217.613281 256.984375 C 216.316406 256.984375 216.195312 255.800781 216.195312 254.824219 L 216.195312 247.5 L 219.035156 247.5 Z M 160.609375 249.722656 L 160.609375 254.558594 C 160.609375 255.632812 160.636719 256.898438 159.1875 256.984375 C 157.890625 256.984375 157.769531 255.800781 157.769531 254.824219 L 157.769531 247.566406 C 158.714844 247.570312 159.660156 247.566406 160.609375 247.558594 Z M 150.195312 121.648438 C 150.320312 118.925781 152.46875 118.019531 154.808594 118.019531 L 219.523438 118.019531 C 221.636719 118.019531 223.890625 117.996094 224.769531 120.441406 C 225.089844 121.332031 224.964844 122.460938 224.964844 123.398438 L 224.964844 165.722656 L 150.195312 165.722656 L 150.195312 130.421875 C 150.195312 127.507812 150.0625 124.558594 150.195312 121.648438 Z M 150.195312 121.648438 " fill-opacity="1" fill-rule="nonzero"/></g><path fill="#4576d4" d="M 157.191406 158.8125 L 169.367188 158.8125 C 172.800781 158.8125 172.804688 153.484375 169.367188 153.484375 L 157.191406 153.484375 C 153.757812 153.484375 153.75 158.8125 157.191406 158.8125 Z M 157.191406 158.8125 " fill-opacity="1" fill-rule="nonzero"/><path fill="#4576d4" d="M 169.367188 178.027344 L 157.191406 178.027344 C 153.757812 178.027344 153.75 183.355469 157.191406 183.355469 L 169.367188 183.355469 C 172.800781 183.355469 172.804688 178.027344 169.367188 178.027344 Z M 169.367188 178.027344 " fill-opacity="1" fill-rule="nonzero"/></svg>