<svg xmlns="http://www.w3.org/2000/svg" xmlns:xlink="http://www.w3.org/1999/xlink" width="500" zoomAndPan="magnify" viewBox="0 0 375 374.999991" height="500" preserveAspectRatio="xMidYMid meet" version="1.0"><defs><clipPath id="a33ef36d3d"><path d="M 0 23.164062 L 375 23.164062 L 375 351.664062 L 0 351.664062 Z M 0 23.164062 " clip-rule="nonzero"/></clipPath><clipPath id="3a0d0c03ec"><path d="M 127 112.5 L 247.703125 112.5 L 247.703125 262.5 L 127 262.5 Z M 127 112.5 " clip-rule="nonzero"/></clipPath></defs><g clip-path="url(#a33ef36d3d)"><path fill="#000000" d="M 280.683594 23.164062 L 94.316406 23.164062 L 0.00390625 187.414062 L 94.316406 351.664062 L 280.683594 351.664062 L 374.996094 187.414062 L 280.683594 23.164062 M 275.550781 342.765625 L 99.449219 342.765625 L 10.265625 187.414062 L 99.449219 32.0625 L 275.550781 32.0625 L 364.734375 187.414062 L 275.550781 342.765625 " fill-opacity="1" fill-rule="nonzero"/></g><g clip-path="url(#3a0d0c03ec)"><path fill="#4576d4" d="M 239.199219 112.5 L 135.460938 112.5 C 130.804688 112.5 127.015625 116.296875 127.015625 120.96875 L 127.015625 246.773438 C 127.015625 250.144531 128.992188 253.0625 131.839844 254.421875 L 131.839844 260.082031 C 131.839844 261.417969 132.921875 262.5 134.253906 262.5 L 148.726562 262.5 C 150.0625 262.5 151.140625 261.417969 151.140625 260.082031 L 151.140625 255.242188 L 223.519531 255.242188 L 223.519531 260.082031 C 223.519531 261.417969 224.597656 262.5 225.929688 262.5 L 240.40625 262.5 C 241.738281 262.5 242.820312 261.417969 242.820312 260.082031 L 242.820312 254.421875 C 245.667969 253.0625 247.644531 250.144531 247.644531 246.773438 L 247.644531 120.96875 C 247.644531 116.296875 243.855469 112.5 239.199219 112.5 Z M 131.839844 120.96875 C 131.839844 118.964844 133.464844 117.339844 135.460938 117.339844 L 218.691406 117.339844 L 218.691406 136.695312 L 131.839844 136.695312 Z M 146.316406 257.660156 L 136.664062 257.660156 L 136.664062 255.242188 L 146.316406 255.242188 Z M 237.992188 257.660156 L 228.34375 257.660156 L 228.34375 255.242188 L 237.992188 255.242188 Z M 242.820312 246.773438 C 242.820312 248.777344 241.195312 250.402344 239.199219 250.402344 L 135.460938 250.402344 C 133.464844 250.402344 131.839844 248.777344 131.839844 246.773438 L 131.839844 141.53125 L 242.820312 141.53125 Z M 242.820312 136.695312 L 223.519531 136.695312 L 223.519531 117.339844 L 239.199219 117.339844 C 241.195312 117.339844 242.820312 118.964844 242.820312 120.96875 Z M 242.820312 136.695312 " fill-opacity="1" fill-rule="nonzero"/></g><path fill="#4576d4" d="M 233.167969 197.175781 C 233.167969 171.832031 212.605469 151.210938 187.328125 151.210938 C 162.054688 151.210938 141.492188 171.832031 141.492188 197.175781 C 141.492188 222.523438 162.054688 243.144531 187.328125 243.144531 C 212.605469 243.144531 233.167969 222.523438 233.167969 197.175781 Z M 187.328125 238.304688 C 164.714844 238.304688 146.316406 219.855469 146.316406 197.175781 C 146.316406 174.5 164.714844 156.046875 187.328125 156.046875 C 209.945312 156.046875 228.34375 174.5 228.34375 197.175781 C 228.34375 219.855469 209.945312 238.304688 187.328125 238.304688 Z M 187.328125 238.304688 " fill-opacity="1" fill-rule="nonzero"/><path fill="#4576d4" d="M 187.328125 160.886719 C 167.375 160.886719 151.140625 177.167969 151.140625 197.175781 C 151.140625 217.1875 167.375 233.46875 187.328125 233.46875 C 207.285156 233.46875 223.519531 217.1875 223.519531 197.175781 C 223.519531 177.167969 207.285156 160.886719 187.328125 160.886719 Z M 187.328125 165.726562 C 204.0625 165.726562 217.777344 178.9375 218.648438 195.507812 C 214.289062 196.976562 201.171875 200.496094 188.28125 194.953125 C 175.164062 189.316406 162.226562 191.890625 156.15625 193.710938 C 157.882812 177.992188 171.203125 165.726562 187.328125 165.726562 Z M 187.328125 228.628906 C 170.59375 228.628906 156.878906 215.417969 156.011719 198.847656 C 160.367188 197.378906 173.484375 193.859375 186.378906 199.402344 C 192.378906 201.980469 198.34375 202.839844 203.628906 202.839844 C 209.898438 202.839844 215.207031 201.628906 218.5 200.644531 C 216.773438 216.363281 203.453125 228.628906 187.328125 228.628906 Z M 187.328125 228.628906 " fill-opacity="1" fill-rule="nonzero"/><path fill="#4576d4" d="M 136.664062 124.597656 L 160.792969 124.597656 C 162.125 124.597656 163.203125 123.511719 163.203125 122.175781 C 163.203125 120.839844 162.125 119.757812 160.792969 119.757812 L 136.664062 119.757812 C 135.332031 119.757812 134.253906 120.839844 134.253906 122.175781 C 134.253906 123.511719 135.332031 124.597656 136.664062 124.597656 Z M 136.664062 124.597656 " fill-opacity="1" fill-rule="nonzero"/><path fill="#4576d4" d="M 136.664062 131.855469 L 148.726562 131.855469 C 150.0625 131.855469 151.140625 130.773438 151.140625 129.433594 C 151.140625 128.097656 150.0625 127.015625 148.726562 127.015625 L 136.664062 127.015625 C 135.332031 127.015625 134.253906 128.097656 134.253906 129.433594 C 134.253906 130.773438 135.332031 131.855469 136.664062 131.855469 Z M 136.664062 131.855469 " fill-opacity="1" fill-rule="nonzero"/><path fill="#4576d4" d="M 233.167969 134.273438 C 237.160156 134.273438 240.40625 131.019531 240.40625 127.015625 C 240.40625 123.015625 237.160156 119.757812 233.167969 119.757812 C 229.175781 119.757812 225.929688 123.015625 225.929688 127.015625 C 225.929688 131.019531 229.175781 134.273438 233.167969 134.273438 Z M 233.167969 124.597656 C 234.5 124.597656 235.582031 125.683594 235.582031 127.015625 C 235.582031 128.351562 234.5 129.433594 233.167969 129.433594 C 231.839844 129.433594 230.753906 128.351562 230.753906 127.015625 C 230.753906 125.683594 231.839844 124.597656 233.167969 124.597656 Z M 233.167969 124.597656 " fill-opacity="1" fill-rule="nonzero"/><path fill="#4576d4" d="M 237.992188 243.144531 L 221.105469 243.144531 C 219.773438 243.144531 218.691406 244.226562 218.691406 245.566406 C 218.691406 246.902344 219.773438 247.984375 221.105469 247.984375 L 237.992188 247.984375 C 239.324219 247.984375 240.40625 246.902344 240.40625 245.566406 C 240.40625 244.226562 239.324219 243.144531 237.992188 243.144531 Z M 237.992188 243.144531 " fill-opacity="1" fill-rule="nonzero"/><path fill="#4576d4" d="M 237.992188 235.886719 L 230.753906 235.886719 C 229.421875 235.886719 228.34375 236.96875 228.34375 238.304688 C 228.34375 239.640625 229.421875 240.726562 230.753906 240.726562 L 237.992188 240.726562 C 239.324219 240.726562 240.40625 239.640625 240.40625 238.304688 C 240.40625 236.96875 239.324219 235.886719 237.992188 235.886719 Z M 237.992188 235.886719 " fill-opacity="1" fill-rule="nonzero"/></svg>