<svg xmlns="http://www.w3.org/2000/svg" xmlns:xlink="http://www.w3.org/1999/xlink" width="500" zoomAndPan="magnify" viewBox="0 0 375 374.999991" height="500" preserveAspectRatio="xMidYMid meet" version="1.0"><defs><clipPath id="1b8844e174"><path d="M 0 23.164062 L 375 23.164062 L 375 351.664062 L 0 351.664062 Z M 0 23.164062 " clip-rule="nonzero"/></clipPath><clipPath id="cca3cfc7a3"><path d="M 148 221 L 160 221 L 160 258.679688 L 148 258.679688 Z M 148 221 " clip-rule="nonzero"/></clipPath><clipPath id="8ec9ab9348"><path d="M 170.453125 221 L 182 221 L 182 258.679688 L 170.453125 258.679688 Z M 170.453125 221 " clip-rule="nonzero"/></clipPath><clipPath id="62ec4767af"><path d="M 193 221 L 204.546875 221 L 204.546875 258.679688 L 193 258.679688 Z M 193 221 " clip-rule="nonzero"/></clipPath><clipPath id="e8c170bff4"><path d="M 215 221 L 227 221 L 227 258.679688 L 215 258.679688 Z M 215 221 " clip-rule="nonzero"/></clipPath><clipPath id="40efde590d"><path d="M 112.5 155 L 262.5 155 L 262.5 214 L 112.5 214 Z M 112.5 155 " clip-rule="nonzero"/></clipPath></defs><g clip-path="url(#1b8844e174)"><path fill="#000000" d="M 280.683594 23.164062 L 94.316406 23.164062 L 0.00390625 187.414062 L 94.316406 351.664062 L 280.683594 351.664062 L 374.996094 187.414062 L 280.683594 23.164062 M 275.550781 342.765625 L 99.449219 342.765625 L 10.265625 187.414062 L 99.449219 32.0625 L 275.550781 32.0625 L 364.734375 187.414062 L 275.550781 342.765625 " fill-opacity="1" fill-rule="nonzero"/></g><path fill="#4576d4" d="M 244.1875 177.683594 C 246.238281 177.683594 247.8125 176.101562 247.8125 174.050781 C 247.8125 172 246.238281 170.414062 244.1875 170.414062 L 235.8125 170.414062 C 233.761719 170.414062 232.175781 172 232.175781 174.050781 C 232.175781 176.101562 233.761719 177.683594 235.8125 177.683594 L 244.1875 177.683594 " fill-opacity="1" fill-rule="nonzero"/><g clip-path="url(#cca3cfc7a3)"><path fill="#4576d4" d="M 157.03125 227.105469 C 157.976562 225.359375 157.175781 223.148438 155.285156 222.203125 C 153.394531 221.257812 151.34375 222.058594 150.398438 223.949219 C 147.550781 229.632812 147.550781 236.265625 150.398438 241.9375 C 152.128906 245.574219 152.128906 249.835938 150.398438 253.472656 C 149.453125 255.203125 150.238281 257.425781 152.128906 258.371094 C 152.609375 258.679688 153.234375 258.679688 153.714844 258.679688 C 155.125 258.679688 156.390625 257.890625 157.03125 256.628906 C 159.867188 250.941406 159.867188 244.308594 157.03125 238.636719 C 155.285156 235 155.285156 230.578125 157.03125 227.105469 " fill-opacity="1" fill-rule="nonzero"/></g><g clip-path="url(#8ec9ab9348)"><path fill="#4576d4" d="M 179.601562 227.105469 C 180.546875 225.359375 179.761719 223.148438 177.871094 222.203125 C 175.96875 221.257812 173.917969 222.058594 172.972656 223.949219 C 170.136719 229.632812 170.136719 236.265625 172.972656 241.9375 C 174.714844 245.574219 174.714844 249.835938 172.972656 253.472656 C 172.027344 255.203125 172.8125 257.425781 174.714844 258.371094 C 175.183594 258.679688 175.820312 258.679688 176.289062 258.679688 C 177.710938 258.679688 178.976562 257.890625 179.601562 256.628906 C 182.453125 250.941406 182.453125 244.308594 179.601562 238.636719 C 177.710938 235 177.710938 230.578125 179.601562 227.105469 " fill-opacity="1" fill-rule="nonzero"/></g><g clip-path="url(#62ec4767af)"><path fill="#4576d4" d="M 202.027344 227.105469 C 202.972656 225.359375 202.175781 223.148438 200.296875 222.203125 C 198.394531 221.257812 196.34375 222.058594 195.398438 223.949219 C 192.546875 229.632812 192.546875 236.265625 195.398438 241.9375 C 197.128906 245.574219 197.128906 249.835938 195.398438 253.472656 C 194.453125 255.203125 195.238281 257.425781 197.128906 258.371094 C 197.605469 258.679688 198.246094 258.679688 198.710938 258.679688 C 200.136719 258.679688 201.402344 257.890625 202.027344 256.628906 C 204.863281 250.941406 204.863281 244.308594 202.027344 238.636719 C 200.296875 235 200.296875 230.578125 202.027344 227.105469 " fill-opacity="1" fill-rule="nonzero"/></g><g clip-path="url(#e8c170bff4)"><path fill="#4576d4" d="M 224.613281 227.105469 C 225.546875 225.359375 224.761719 223.148438 222.871094 222.203125 C 220.976562 221.257812 218.925781 222.058594 217.980469 223.949219 C 215.132812 229.632812 215.132812 236.265625 217.980469 241.9375 C 219.714844 245.574219 219.714844 249.835938 217.980469 253.472656 C 217.023438 255.203125 217.820312 257.425781 219.714844 258.371094 C 220.191406 258.679688 220.820312 258.679688 221.285156 258.679688 C 222.710938 258.679688 223.972656 257.890625 224.613281 256.628906 C 227.449219 250.941406 227.449219 244.308594 224.613281 238.636719 C 222.710938 235 222.710938 230.578125 224.613281 227.105469 " fill-opacity="1" fill-rule="nonzero"/></g><g clip-path="url(#40efde590d)"><path fill="#4576d4" d="M 250.183594 206.421875 L 124.816406 206.421875 C 122.128906 206.421875 119.917969 204.210938 119.917969 201.523438 L 119.917969 197.582031 L 255.230469 197.582031 L 255.230469 201.523438 C 255.230469 204.210938 253.019531 206.421875 250.183594 206.421875 Z M 250.183594 155.261719 L 225.546875 155.261719 L 225.546875 155.417969 C 226.183594 157.949219 225.867188 160.46875 224.613281 162.519531 L 250.339844 162.519531 C 253.019531 162.519531 255.230469 164.742188 255.230469 167.417969 L 255.230469 190.148438 L 119.769531 190.148438 L 119.769531 167.578125 C 119.769531 164.902344 121.980469 162.675781 124.65625 162.675781 L 150.398438 162.675781 L 150.398438 162.53125 C 149.132812 160.320312 148.816406 157.789062 149.453125 155.417969 L 149.453125 155.261719 L 124.816406 155.261719 C 118.027344 155.261719 112.5 160.785156 112.5 167.578125 L 112.5 201.523438 C 112.5 208.3125 118.027344 213.839844 124.816406 213.839844 L 250.183594 213.839844 C 256.972656 213.839844 262.5 208.3125 262.5 201.523438 L 262.5 167.578125 C 262.5 160.785156 256.972656 155.261719 250.183594 155.261719 " fill-opacity="1" fill-rule="nonzero"/></g><path fill="#4576d4" d="M 159.867188 152.582031 C 158.761719 152.265625 157.816406 152.890625 157.496094 153.996094 L 156.550781 157.3125 C 156.230469 158.417969 156.871094 159.363281 157.976562 159.679688 L 165.394531 161.730469 L 163.34375 169.003906 C 163.023438 170.109375 163.664062 171.054688 164.769531 171.375 L 168.085938 172.320312 C 169.1875 172.625 170.136719 172 170.441406 170.894531 L 172.972656 161.414062 L 183.863281 155.101562 L 183.863281 167.738281 L 176.925781 174.6875 C 176.128906 175.476562 176.128906 176.738281 176.925781 177.527344 L 179.296875 179.894531 C 180.082031 180.683594 181.347656 180.683594 182.132812 179.894531 L 187.5 174.53125 L 192.867188 179.894531 C 193.652344 180.683594 194.917969 180.683594 195.703125 179.894531 L 198.074219 177.527344 C 198.871094 176.738281 198.871094 175.476562 198.074219 174.6875 L 191.136719 167.738281 L 191.136719 155.101562 L 202.027344 161.414062 L 204.558594 170.894531 C 204.863281 172 205.96875 172.625 206.914062 172.320312 L 210.230469 171.375 C 211.335938 171.054688 211.960938 169.949219 211.65625 169.003906 L 209.605469 161.570312 L 217.023438 159.519531 C 218.128906 159.214844 218.753906 158.109375 218.449219 157.152344 L 217.488281 153.835938 C 217.183594 152.730469 216.078125 152.105469 215.132812 152.421875 L 205.664062 154.953125 L 194.757812 148.628906 L 205.664062 142.316406 L 215.132812 144.847656 C 216.238281 145.164062 217.183594 144.527344 217.488281 143.421875 L 218.449219 140.105469 C 218.753906 139 218.128906 138.054688 217.023438 137.734375 L 209.605469 135.683594 L 211.65625 128.265625 C 211.960938 127.160156 211.335938 126.203125 210.230469 125.898438 L 206.914062 124.949219 C 205.808594 124.632812 204.863281 125.269531 204.558594 126.375 L 202.027344 135.84375 L 191.136719 142.15625 L 191.136719 129.53125 L 198.074219 122.582031 C 198.871094 121.796875 198.871094 120.53125 198.074219 119.730469 L 195.703125 117.375 C 194.917969 116.574219 193.652344 116.574219 192.867188 117.375 L 187.5 123.207031 L 182.132812 117.839844 C 181.347656 117.054688 180.082031 117.054688 179.296875 117.839844 L 176.925781 120.210938 C 176.128906 120.996094 176.128906 122.261719 176.925781 123.046875 L 183.863281 130 L 183.863281 142.636719 L 172.972656 136.308594 L 170.441406 126.84375 C 170.136719 125.738281 169.03125 125.097656 168.085938 125.417969 L 164.769531 126.363281 C 163.664062 126.683594 163.023438 127.789062 163.34375 128.734375 L 165.394531 136.152344 L 157.976562 138.203125 C 156.871094 138.519531 156.246094 139.625 156.550781 140.570312 L 157.496094 143.886719 C 157.816406 144.992188 158.921875 145.632812 159.867188 145.3125 L 169.347656 142.78125 L 180.242188 149.109375 L 169.347656 155.417969 L 159.867188 152.582031 " fill-opacity="1" fill-rule="nonzero"/></svg>