<?xml version="1.0" encoding="utf-8"?>
<svg width="500" zoomAndPan="magnify" viewBox="6.844 66.562 361.316 241.964" height="500" preserveAspectRatio="xMidYMid meet" version="1.0" xmlns="http://www.w3.org/2000/svg">
  <defs>
    <clipPath id="743ed187fa">
      <path d="M 7.5 67.09375 L 367.5 67.09375 L 367.5 307.84375 L 7.5 307.84375 Z M 7.5 67.09375 " clip-rule="nonzero"/>
    </clipPath>
  </defs>
  <g clip-path="url(#743ed187fa)">
    <path fill="#4576d4" d="M 351.015625 307.84375 L 23.984375 307.84375 C 14.894531 307.84375 7.507812 300.457031 7.507812 291.375 L 7.507812 83.5625 C 7.507812 74.476562 14.894531 67.09375 23.984375 67.09375 L 351.015625 67.09375 C 360.101562 67.09375 367.488281 74.476562 367.488281 83.5625 L 367.488281 291.375 C 367.488281 300.457031 360.101562 307.84375 351.015625 307.84375 Z M 23.984375 73.167969 C 18.25 73.167969 13.582031 77.832031 13.582031 83.5625 L 13.582031 291.375 C 13.582031 297.105469 18.25 301.769531 23.984375 301.769531 L 351.015625 301.769531 C 356.75 301.769531 361.414062 297.105469 361.414062 291.375 L 361.414062 83.5625 C 361.414062 77.832031 356.75 73.167969 351.015625 73.167969 Z M 23.984375 73.167969 " fill-opacity="1" fill-rule="nonzero"/>
  </g>
  <path fill="#4576d4" d="M 237.273438 289.613281 L 40.105469 289.613281 C 33.105469 289.613281 27.410156 283.914062 27.410156 276.917969 L 27.410156 98.019531 C 27.410156 91.019531 33.105469 85.324219 40.105469 85.324219 L 237.285156 85.324219 C 244.285156 85.324219 249.980469 91.019531 249.980469 98.019531 L 249.980469 276.917969 C 249.96875 283.914062 244.285156 289.613281 237.273438 289.613281 Z M 40.105469 91.398438 C 36.460938 91.398438 33.484375 94.363281 33.484375 98.019531 L 33.484375 276.917969 C 33.484375 280.5625 36.460938 283.539062 40.105469 283.539062 L 237.285156 283.539062 C 240.929688 283.539062 243.90625 280.574219 243.90625 276.917969 L 243.90625 98.019531 C 243.90625 94.375 240.941406 91.398438 237.285156 91.398438 Z M 40.105469 91.398438 " fill-opacity="1" fill-rule="nonzero"/>
  <path fill="#4576d4" d="M 338.816406 289.613281 L 272.3125 289.613281 C 267.441406 289.613281 263.46875 285.652344 263.46875 280.78125 L 263.46875 94.167969 C 263.46875 89.296875 267.425781 85.324219 272.3125 85.324219 L 338.816406 85.324219 C 343.6875 85.324219 347.660156 89.285156 347.660156 94.167969 L 347.660156 280.78125 C 347.660156 285.640625 343.6875 289.613281 338.816406 289.613281 Z M 272.3125 91.398438 C 270.792969 91.398438 269.542969 92.636719 269.542969 94.167969 L 269.542969 280.78125 C 269.542969 282.300781 270.78125 283.539062 272.3125 283.539062 L 338.816406 283.539062 C 340.335938 283.539062 341.585938 282.300781 341.585938 280.78125 L 341.585938 94.167969 C 341.585938 92.648438 340.347656 91.398438 338.816406 91.398438 Z M 272.3125 91.398438 " fill-opacity="1" fill-rule="nonzero"/>
  <path fill="#4576d4" d="M 138.683594 277.5625 C 88.992188 277.5625 48.574219 237.152344 48.574219 187.472656 C 48.574219 137.796875 88.992188 97.386719 138.683594 97.386719 C 188.371094 97.386719 228.792969 137.796875 228.792969 187.472656 C 228.792969 237.140625 188.371094 277.5625 138.683594 277.5625 Z M 138.683594 103.460938 C 92.347656 103.460938 54.648438 141.148438 54.648438 187.472656 C 54.648438 233.800781 92.347656 271.488281 138.683594 271.488281 C 185.019531 271.488281 222.71875 233.800781 222.71875 187.472656 C 222.71875 141.148438 185.03125 103.460938 138.683594 103.460938 Z M 138.683594 103.460938 " fill-opacity="1" fill-rule="nonzero"/>
  <path fill="#4576d4" d="M 138.695312 207.152344 C 133.433594 207.152344 128.488281 205.097656 124.773438 201.382812 C 117.09375 193.707031 117.09375 181.21875 124.773438 173.542969 C 127.859375 170.457031 131.757812 168.527344 136.058594 167.96875 C 137.128906 167.835938 138.234375 167.773438 139.339844 167.808594 C 144.367188 167.96875 149.082031 170.007812 152.628906 173.554688 C 156.324219 177.246094 158.363281 182.15625 158.375 187.363281 C 158.390625 187.996094 158.363281 188.617188 158.304688 189.234375 C 157.925781 193.777344 155.910156 198.113281 152.628906 201.394531 C 148.898438 205.109375 143.957031 207.152344 138.695312 207.152344 Z M 138.71875 173.871094 C 138.074219 173.871094 137.445312 173.90625 136.835938 173.992188 C 133.882812 174.378906 131.199219 175.703125 129.0625 177.84375 C 123.75 183.152344 123.75 191.785156 129.0625 197.09375 C 131.636719 199.667969 135.050781 201.078125 138.695312 201.078125 C 142.339844 201.078125 145.753906 199.65625 148.328125 197.09375 C 150.601562 194.824219 151.984375 191.835938 152.253906 188.675781 C 152.289062 188.25 152.3125 187.851562 152.300781 187.414062 C 152.289062 183.769531 150.878906 180.382812 148.328125 177.832031 C 145.886719 175.390625 142.621094 173.980469 139.15625 173.871094 C 139.011719 173.871094 138.863281 173.871094 138.71875 173.871094 Z M 138.71875 173.871094 " fill-opacity="1" fill-rule="nonzero"/>
  <path fill="#4576d4" d="M 151.609375 195.140625 L 152.253906 188.628906 C 152.289062 188.25 152.300781 187.863281 152.300781 187.425781 C 152.289062 183.78125 150.878906 180.394531 148.328125 177.84375 C 145.886719 175.402344 142.621094 173.992188 139.15625 173.882812 C 138.378906 173.871094 137.589844 173.894531 136.847656 173.992188 L 130.082031 174.867188 L 157.855469 134.589844 C 159.824219 131.734375 162.921875 129.925781 166.371094 129.609375 C 169.808594 129.292969 173.210938 130.519531 175.652344 132.972656 L 192.769531 150.089844 C 195.226562 152.542969 196.453125 155.917969 196.136719 159.367188 C 195.820312 162.816406 194.011719 165.914062 191.15625 167.882812 Z M 142.121094 168.089844 C 146.082031 168.78125 149.738281 170.664062 152.617188 173.542969 C 155.351562 176.277344 157.1875 179.675781 157.953125 183.394531 L 187.691406 162.890625 C 189.054688 161.957031 189.914062 160.472656 190.074219 158.820312 C 190.21875 157.167969 189.636719 155.554688 188.46875 154.386719 L 171.351562 137.273438 C 170.171875 136.097656 168.558594 135.511719 166.917969 135.671875 C 165.277344 135.816406 163.796875 136.691406 162.847656 138.050781 Z M 142.121094 168.089844 " fill-opacity="1" fill-rule="nonzero"/>
  <path fill="#4576d4" d="M 126.085938 196.085938 L 85.796875 168.320312 C 82.941406 166.351562 81.132812 163.253906 80.816406 159.804688 C 80.5 156.355469 81.726562 152.980469 84.183594 150.527344 L 101.300781 133.410156 C 103.753906 130.957031 107.132812 129.730469 110.582031 130.046875 C 114.03125 130.363281 117.128906 132.171875 119.097656 135.027344 L 146.375 174.5625 L 139.847656 173.90625 C 139.472656 173.871094 139.082031 173.859375 138.644531 173.859375 C 135 173.871094 131.613281 175.28125 129.0625 177.832031 C 126.617188 180.285156 125.210938 183.539062 125.101562 187 C 125.074219 187.789062 125.113281 188.566406 125.210938 189.308594 Z M 109.523438 136.070312 C 108.054688 136.070312 106.644531 136.65625 105.589844 137.699219 L 88.46875 154.8125 C 87.304688 155.980469 86.707031 157.605469 86.867188 159.246094 C 87.011719 160.886719 87.886719 162.367188 89.246094 163.316406 L 119.304688 184.023438 C 119.996094 180.066406 121.878906 176.410156 124.761719 173.53125 C 127.492188 170.796875 130.894531 168.964844 134.601562 168.199219 L 114.105469 138.476562 C 113.167969 137.117188 111.6875 136.253906 110.035156 136.097656 C 109.863281 136.082031 109.695312 136.070312 109.523438 136.070312 Z M 109.523438 136.070312 " fill-opacity="1" fill-rule="nonzero"/>
  <path fill="#4576d4" d="M 109.949219 245.375 C 106.875 245.375 103.925781 244.160156 101.726562 241.960938 L 84.605469 224.847656 C 82.152344 222.394531 80.925781 219.019531 81.242188 215.570312 C 81.558594 212.117188 83.367188 209.023438 86.222656 207.054688 L 125.769531 179.796875 L 125.125 186.320312 C 125.089844 186.695312 125.074219 187.097656 125.074219 187.523438 C 125.089844 191.167969 126.496094 194.554688 129.046875 197.105469 C 131.492188 199.558594 134.757812 200.957031 138.222656 201.066406 C 139.011719 201.089844 139.789062 201.054688 140.53125 200.957031 L 147.296875 200.082031 L 119.523438 240.359375 C 117.554688 243.214844 114.457031 245.023438 111.007812 245.339844 C 110.667969 245.363281 110.316406 245.375 109.949219 245.375 Z M 119.425781 191.542969 L 89.683594 212.046875 C 88.324219 212.980469 87.460938 214.464844 87.304688 216.113281 C 87.160156 217.765625 87.742188 219.382812 88.90625 220.546875 L 106.027344 237.664062 C 107.191406 238.828125 108.820312 239.421875 110.460938 239.265625 C 112.101562 239.121094 113.582031 238.246094 114.53125 236.886719 L 135.257812 206.835938 C 131.296875 206.144531 127.640625 204.261719 124.761719 201.382812 C 122.027344 198.660156 120.191406 195.261719 119.425781 191.542969 Z M 119.425781 191.542969 " fill-opacity="1" fill-rule="nonzero"/>
  <path fill="#4576d4" d="M 167.851562 244.9375 C 167.5 244.9375 167.148438 244.925781 166.785156 244.890625 C 163.332031 244.574219 160.234375 242.765625 158.265625 239.910156 L 130.992188 200.375 L 137.515625 201.03125 C 137.894531 201.066406 138.28125 201.078125 138.71875 201.078125 C 142.363281 201.066406 145.753906 199.65625 148.304688 197.105469 C 150.746094 194.664062 152.15625 191.398438 152.265625 187.9375 C 152.289062 187.148438 152.253906 186.371094 152.15625 185.628906 L 151.269531 178.863281 L 191.554688 206.628906 C 194.410156 208.597656 196.222656 211.695312 196.539062 215.144531 C 196.851562 218.59375 195.625 221.96875 193.171875 224.421875 L 176.054688 241.539062 C 173.878906 243.722656 170.925781 244.9375 167.851562 244.9375 Z M 142.765625 206.726562 L 163.273438 236.460938 C 164.207031 237.820312 165.691406 238.683594 167.34375 238.839844 C 168.984375 238.988281 170.609375 238.402344 171.777344 237.238281 L 188.894531 220.125 C 190.0625 218.945312 190.65625 217.328125 190.5 215.691406 C 190.351562 214.050781 189.480469 212.570312 188.117188 211.621094 L 158.0625 190.898438 C 157.367188 194.859375 155.484375 198.515625 152.605469 201.394531 C 149.882812 204.125 146.46875 205.960938 142.765625 206.726562 Z M 142.765625 206.726562 " fill-opacity="1" fill-rule="nonzero"/>
  <path fill="#4576d4" d="M 266.503906 173.371094 L 344.609375 173.371094 L 344.609375 179.445312 L 266.503906 179.445312 Z M 266.503906 173.371094 " fill-opacity="1" fill-rule="nonzero"/>
  <path fill="#4576d4" d="M 266.503906 195.84375 L 344.609375 195.84375 L 344.609375 201.917969 L 266.503906 201.917969 Z M 266.503906 195.84375 " fill-opacity="1" fill-rule="nonzero"/>
  <path fill="#4576d4" d="M 266.503906 218.300781 L 344.609375 218.300781 L 344.609375 224.375 L 266.503906 224.375 Z M 266.503906 218.300781 " fill-opacity="1" fill-rule="nonzero"/>
  <path fill="#4576d4" d="M 266.503906 240.773438 L 344.609375 240.773438 L 344.609375 246.84375 L 266.503906 246.84375 Z M 266.503906 240.773438 " fill-opacity="1" fill-rule="nonzero"/>
  <path fill="#4576d4" d="M 266.503906 263.230469 L 344.609375 263.230469 L 344.609375 269.304688 L 266.503906 269.304688 Z M 266.503906 263.230469 " fill-opacity="1" fill-rule="nonzero"/>
</svg>